<svg version="1.1" id="Layer_1" xmlns="http://www.w3.org/2000/svg" xmlns:xlink="http://www.w3.org/1999/xlink" x="0px" y="0px"
	 width="100%" viewBox="0 0 1080 1080" enable-background="new 0 0 1080 1080" xml:space="preserve">
<path fill="#310073" opacity="1.000000" stroke="none" 
	d="
M477.000000,1081.000000 
	C318.018280,1081.000000 159.536575,1081.000000 1.027435,1081.000000 
	C1.027435,721.059814 1.027435,361.119659 1.027435,1.089748 
	C360.898621,1.089748 720.797302,1.089748 1080.847900,1.089748 
	C1080.847900,360.999939 1080.847900,720.999939 1080.847900,1081.000000 
	C879.785889,1081.000000 678.642944,1081.000000 477.000000,1081.000000 
M794.426147,589.339844 
	C774.742554,589.230835 755.059021,589.112061 735.375305,589.052124 
	C734.659729,589.049988 733.942505,589.626282 733.094299,590.720764 
	C736.533203,602.620361 739.542053,614.664795 743.491394,626.392456 
	C755.522583,662.119934 768.000427,697.696716 780.141663,733.387573 
	C789.196289,760.004822 797.862793,786.754333 806.974060,813.351868 
	C811.092529,825.374451 816.832336,836.764221 826.277893,845.482178 
	C845.610046,863.325195 873.241821,863.602783 895.297852,851.681824 
	C909.985229,843.743469 917.742859,830.491028 923.008911,815.438110 
	C936.442932,777.037415 949.791016,738.606445 963.056580,700.147278 
	C968.074097,685.600647 972.897705,670.934448 973.014954,655.322815 
	C973.168823,634.834900 973.021790,614.344666 972.981201,593.855469 
	C972.979004,592.739014 972.766113,591.622925 972.593628,589.946716 
	C913.222656,589.946716 854.115173,589.946716 794.426147,589.339844 
M680.645325,489.258118 
	C673.443970,486.836212 666.242676,484.414276 658.507996,481.425201 
	C631.627136,475.010376 604.746338,468.595581 577.092896,462.049957 
	C573.809082,461.014099 570.515320,460.008820 567.243164,458.937317 
	C548.079407,452.662109 528.583679,447.233459 509.832733,439.900909 
	C474.176849,425.957672 438.650330,411.751678 404.371399,394.403381 
	C352.196777,367.998169 301.521149,339.227142 254.721344,304.115845 
	C226.933899,283.268524 200.208328,261.009338 172.841095,239.594788 
	C168.472214,236.176178 163.558060,232.520905 158.346939,231.279190 
	C139.233841,226.724854 123.004745,231.700439 110.851059,247.945007 
	C100.442711,261.856812 100.067268,275.909821 109.466080,289.921661 
	C112.967987,295.142334 116.723213,300.493744 121.425545,304.555267 
	C139.425980,320.102814 157.392410,335.754028 176.211151,350.278687 
	C253.297043,409.774994 336.440765,458.970154 426.635925,496.010864 
	C480.508270,518.134766 535.607910,536.549866 592.038879,550.935486 
	C604.993103,554.237732 618.094177,556.964050 631.701782,560.428040 
	C633.127258,560.825317 634.534302,561.313660 635.981079,561.605225 
	C646.648132,563.754883 657.211121,566.434814 668.268616,563.520447 
	C688.389893,558.217224 706.221069,534.905945 697.675171,510.142700 
	C694.676270,501.452881 689.352478,494.324646 680.645325,489.258118 
M212.886078,681.958130 
	C225.178162,683.646729 237.467255,685.357483 249.763123,687.017944 
	C263.052155,688.812500 276.351776,690.528809 289.639038,692.336182 
	C305.706757,694.521729 321.766693,696.764221 337.829315,698.987000 
	C353.564240,701.164307 369.300812,703.329773 385.031860,705.534546 
	C397.810791,707.325562 410.573975,709.230774 423.359955,710.969177 
	C437.290619,712.863159 451.249512,714.550232 465.177490,716.463135 
	C477.955322,718.217834 490.703705,720.185791 503.473602,721.999878 
	C517.066589,723.931091 530.664795,725.827271 544.269714,727.672546 
	C555.256531,729.162720 566.250732,730.602051 577.252441,731.977722 
	C590.217712,733.598877 603.222168,734.931763 616.157532,736.758545 
	C626.265564,738.186096 635.628052,737.382385 643.582642,730.201172 
	C652.312317,722.320190 656.891113,712.973938 653.879883,700.972168 
	C651.791504,692.648743 646.356873,686.776550 639.024109,683.088196 
	C615.161072,671.084961 591.046753,659.581604 567.178955,647.587769 
	C562.291626,645.131897 559.659485,646.208252 556.538574,650.312195 
	C544.105530,666.661621 529.204956,680.195679 510.726410,689.614929 
	C482.912262,703.792908 453.937927,708.445374 423.096558,702.179321 
	C392.810638,696.025940 368.785797,679.725159 348.231934,657.611084 
	C332.691986,640.891541 323.718964,620.551025 321.401459,598.199036 
	C319.508850,579.945068 320.515106,561.392578 324.527161,543.168396 
	C327.192993,531.059265 328.480194,533.211487 316.908966,527.714417 
	C284.371643,512.257080 251.675537,497.134399 219.087418,481.783447 
	C200.012527,472.797974 181.084076,463.500397 161.975342,454.588562 
	C150.132858,449.065491 136.872162,451.861237 127.581390,460.870697 
	C119.562927,468.646423 117.246216,478.462219 117.179047,488.954803 
	C116.944359,525.615601 116.953438,562.278015 116.535606,599.697388 
	C116.343765,609.404907 116.065536,619.112000 116.010567,628.820312 
	C115.993149,631.896118 116.571548,634.975281 116.949318,638.895874 
	C117.773567,655.977539 130.696320,670.159119 148.606750,673.508362 
	C169.750702,676.289795 190.894653,679.071289 212.886078,681.958130 
M437.643524,584.871399 
	C417.864471,575.280212 398.085419,565.689087 377.563202,555.737610 
	C376.881653,560.215637 376.407501,563.440552 375.898285,566.659912 
	C371.362488,595.337952 382.176147,618.307129 404.090149,635.609375 
	C419.912811,648.102173 438.628784,653.412659 459.376099,650.131104 
	C479.026672,647.023071 495.076843,638.102234 507.960785,623.145691 
	C510.692932,619.974060 509.847321,618.467773 506.025726,616.716248 
	C483.393372,606.343445 460.907379,595.651245 437.643524,584.871399 
z"/>
<path fill="#6E52FA" opacity="1.000000" stroke="none" 
	d="
M148.012817,672.985413 
	C130.696320,670.159119 117.773567,655.977539 116.959259,638.004211 
	C116.936104,624.388306 116.903000,611.664062 116.869904,598.939819 
	C116.953438,562.278015 116.944359,525.615601 117.179047,488.954803 
	C117.246216,478.462219 119.562927,468.646423 127.581390,460.870697 
	C136.872162,451.861237 150.132858,449.065491 161.975342,454.588562 
	C181.084076,463.500397 200.012527,472.797974 219.087418,481.783447 
	C251.675537,497.134399 284.371643,512.257080 316.908966,527.714417 
	C328.480194,533.211487 327.192993,531.059265 324.527161,543.168396 
	C320.515106,561.392578 319.508850,579.945068 321.401459,598.199036 
	C323.718964,620.551025 332.691986,640.891541 348.231934,657.611084 
	C368.785797,679.725159 392.810638,696.025940 423.096558,702.179321 
	C453.937927,708.445374 482.912262,703.792908 510.726410,689.614929 
	C529.204956,680.195679 544.105530,666.661621 556.538574,650.312195 
	C559.659485,646.208252 562.291626,645.131897 567.178955,647.587769 
	C591.046753,659.581604 615.161072,671.084961 639.024109,683.088196 
	C646.356873,686.776550 651.791504,692.648743 653.879883,700.972168 
	C656.891113,712.973938 652.312317,722.320190 643.582642,730.201172 
	C635.628052,737.382385 626.265564,738.186096 616.157532,736.758545 
	C603.222168,734.931763 590.217712,733.598877 577.252441,731.977722 
	C566.250732,730.602051 555.256531,729.162720 544.269714,727.672546 
	C530.664795,725.827271 517.066589,723.931091 503.473602,721.999878 
	C490.703705,720.185791 477.955322,718.217834 465.177490,716.463135 
	C451.249512,714.550232 437.290619,712.863159 423.359955,710.969177 
	C410.573975,709.230774 397.810791,707.325562 385.031860,705.534546 
	C369.300812,703.329773 353.564240,701.164307 337.829315,698.987000 
	C321.766693,696.764221 305.706757,694.521729 289.639038,692.336182 
	C276.351776,690.528809 263.052155,688.812500 249.763123,687.017944 
	C237.467255,685.357483 225.178162,683.646729 212.607391,681.617004 
	C213.741669,680.000122 215.154617,678.724365 217.179367,676.896240 
	C215.228470,676.386658 214.458054,676.064758 213.665649,675.996033 
	C194.322937,674.317200 174.984848,672.572205 155.624573,671.124390 
	C153.147583,670.939087 150.552963,672.326477 148.012817,672.985413 
z"/>
<path fill="#6E52FB" opacity="1.000000" stroke="none" 
	d="
M659.041321,481.992371 
	C666.242676,484.414276 673.443970,486.836212 680.840149,489.980835 
	C681.959229,494.671600 682.624512,498.723694 683.877075,502.585236 
	C685.255737,506.835449 687.265930,510.876312 688.833679,515.070923 
	C690.632629,519.884216 690.645203,524.218201 686.484924,528.297119 
	C683.474792,531.248291 682.289917,535.622131 685.664978,538.999390 
	C688.549438,541.885742 688.137817,544.147949 686.102356,546.781067 
	C680.012939,554.658447 672.198730,559.680786 662.046814,559.937317 
	C651.746887,560.197693 641.434509,559.969604 631.127625,559.955444 
	C618.094177,556.964050 604.993103,554.237732 592.038879,550.935486 
	C535.607910,536.549866 480.508270,518.134766 426.635925,496.010864 
	C336.440765,458.970154 253.297043,409.774994 176.211151,350.278687 
	C157.392410,335.754028 139.425980,320.102814 121.425545,304.555267 
	C116.723213,300.493744 112.967987,295.142334 109.466080,289.921661 
	C100.067268,275.909821 100.442711,261.856812 110.851059,247.945007 
	C123.004745,231.700439 139.233841,226.724854 158.346939,231.279190 
	C163.558060,232.520905 168.472214,236.176178 172.841095,239.594788 
	C200.208328,261.009338 226.933899,283.268524 254.721344,304.115845 
	C301.521149,339.227142 352.196777,367.998169 404.371399,394.403381 
	C438.650330,411.751678 474.176849,425.957672 509.832733,439.900909 
	C528.583679,447.233459 548.079407,452.662109 567.243164,458.937317 
	C570.515320,460.008820 573.809082,461.014099 577.261108,462.282166 
	C577.349548,463.398926 576.984924,464.965942 577.231323,465.068756 
	C584.266418,468.004852 591.147217,471.740387 598.493347,473.413147 
	C614.688660,477.100891 631.094482,479.909058 647.482910,482.669708 
	C651.192383,483.294586 655.181152,482.262024 659.041321,481.992371 
z"/>
<path fill="#6E52FB" opacity="1.000000" stroke="none" 
	d="
M795.007690,589.946716 
	C854.115173,589.946716 913.222656,589.946716 972.593628,589.946716 
	C972.766113,591.622925 972.979004,592.739014 972.981201,593.855469 
	C973.021790,614.344666 973.168823,634.834900 973.014954,655.322815 
	C972.897705,670.934448 968.074097,685.600647 963.056580,700.147278 
	C949.791016,738.606445 936.442932,777.037415 923.008911,815.438110 
	C917.742859,830.491028 909.985229,843.743469 895.297852,851.681824 
	C873.241821,863.602783 845.610046,863.325195 826.277893,845.482178 
	C816.832336,836.764221 811.092529,825.374451 806.974060,813.351868 
	C797.862793,786.754333 789.196289,760.004822 780.141663,733.387573 
	C768.000427,697.696716 755.522583,662.119934 743.491394,626.392456 
	C739.542053,614.664795 736.533203,602.620361 733.613525,590.336548 
	C754.424438,589.950500 774.716064,589.948608 795.007690,589.946716 
z"/>
<path fill="#CFD0D0" opacity="1.000000" stroke="none" 
	d="
M438.007874,584.968872 
	C460.907379,595.651245 483.393372,606.343445 506.025726,616.716248 
	C509.847321,618.467773 510.692932,619.974060 507.960785,623.145691 
	C495.076843,638.102234 479.026672,647.023071 459.376099,650.131104 
	C438.628784,653.412659 419.912811,648.102173 404.090149,635.609375 
	C382.176147,618.307129 371.362488,595.337952 375.898285,566.659912 
	C376.407501,563.440552 376.881653,560.215637 377.563202,555.737610 
	C398.085419,565.689087 417.864471,575.280212 438.007874,584.968872 
z"/>
<path fill="#775AED" opacity="1.000000" stroke="none" 
	d="
M631.414673,560.191772 
	C641.434509,559.969604 651.746887,560.197693 662.046814,559.937317 
	C672.198730,559.680786 680.012939,554.658447 686.102356,546.781067 
	C688.137817,544.147949 688.549438,541.885742 685.664978,538.999390 
	C682.289917,535.622131 683.474792,531.248291 686.484924,528.297119 
	C690.645203,524.218201 690.632629,519.884216 688.833679,515.070923 
	C687.265930,510.876312 685.255737,506.835449 683.877075,502.585236 
	C682.624512,498.723694 681.959229,494.671600 681.043091,490.251892 
	C689.352478,494.324646 694.676270,501.452881 697.675171,510.142700 
	C706.221069,534.905945 688.389893,558.217224 668.268616,563.520447 
	C657.211121,566.434814 646.648132,563.754883 635.981079,561.605225 
	C634.534302,561.313660 633.127258,560.825317 631.414673,560.191772 
z"/>
<path fill="#775AEE" opacity="1.000000" stroke="none" 
	d="
M658.774658,481.708801 
	C655.181152,482.262024 651.192383,483.294586 647.482910,482.669708 
	C631.094482,479.909058 614.688660,477.100891 598.493347,473.413147 
	C591.147217,471.740387 584.266418,468.004852 577.231323,465.068756 
	C576.984924,464.965942 577.349548,463.398926 577.647461,462.347534 
	C604.746338,468.595581 631.627136,475.010376 658.774658,481.708801 
z"/>
<path fill="#775AED" opacity="1.000000" stroke="none" 
	d="
M148.309784,673.246887 
	C150.552963,672.326477 153.147583,670.939087 155.624573,671.124390 
	C174.984848,672.572205 194.322937,674.317200 213.665649,675.996033 
	C214.458054,676.064758 215.228470,676.386658 217.179367,676.896240 
	C215.154617,678.724365 213.741669,680.000122 212.183655,681.564331 
	C190.894653,679.071289 169.750702,676.289795 148.309784,673.246887 
z"/>
<path fill="#8A72E4" opacity="1.000000" stroke="none" 
	d="
M794.716919,589.643311 
	C774.716064,589.948608 754.424438,589.950500 733.679443,589.942749 
	C733.942505,589.626282 734.659729,589.049988 735.375305,589.052124 
	C755.059021,589.112061 774.742554,589.230835 794.716919,589.643311 
z"/>
<path fill="#5731A6" opacity="1.000000" stroke="none" 
	d="
M116.702759,599.318604 
	C116.903000,611.664062 116.936104,624.388306 116.923248,637.582764 
	C116.571548,634.975281 115.993149,631.896118 116.010567,628.820312 
	C116.065536,619.112000 116.343765,609.404907 116.702759,599.318604 
z"/>
</svg>